<svg xmlns="http://www.w3.org/2000/svg" width="17.238" height="17.238" viewBox="0 0 17.238 17.238">
    <path d="M15.957 0H1.269A1.265 1.265 0 0 0 0 1.245v14.748a1.265 1.265 0 0 0 1.269 1.245h14.688a1.267 1.267 0 0 0 1.281-1.245V1.245A1.267 1.267 0 0 0 15.957 0zM5.112 14.688H2.55V6.464h2.562v8.224zM3.831 5.339a1.484 1.484 0 1 1 1.484-1.484 1.492 1.492 0 0 1-1.484 1.484zm10.858 9.349h-2.562v-4c0-.958-.012-2.179-1.329-2.179S9.266 9.553 9.266 10.63v4.07h-2.55V6.464H9.17V7.59h.036a2.676 2.676 0 0 1 2.418-1.329c2.586 0 3.065 1.7 3.065 3.915z"/>
</svg>
