<svg xmlns="http://www.w3.org/2000/svg" id="prefix__icon-twitter" width="15.01" height="15.01" viewBox="0 0 15.01 15.01">
    <path id="prefix__Rectangle_393" d="M0 0H15.01V15.01H0z" data-name="Rectangle 393" style="fill:none"/>
    <path id="prefix__Path_2" d="M42.753 14.175a8.678 8.678 0 0 0 8.756-8.756V5a6.778 6.778 0 0 0 1.5-1.584 6.922 6.922 0 0 1-1.751.5 3.244 3.244 0 0 0 1.335-1.666 7.648 7.648 0 0 1-1.918.75 2.978 2.978 0 0 0-2.251-1 3.133 3.133 0 0 0-3.085 3.085 1.626 1.626 0 0 0 .083.667A8.621 8.621 0 0 1 39.084 2.5a3.193 3.193 0 0 0-.417 1.584A3.313 3.313 0 0 0 40 6.67a2.811 2.811 0 0 1-1.418-.417 3.048 3.048 0 0 0 2.5 3 2.571 2.571 0 0 1-.834.083 1.419 1.419 0 0 1-.584-.083 3.159 3.159 0 0 0 2.919 2.168 6.3 6.3 0 0 1-3.836 1.334 2.309 2.309 0 0 1-.75-.083 7.871 7.871 0 0 0 4.753 1.5" data-name="Path 2" transform="translate(-38 -.124)" style="fill-rule:evenodd"/>
</svg>
