<svg xmlns="http://www.w3.org/2000/svg" id="prefix__icon-instagram" width="15.01" height="15.01" viewBox="0 0 15.01 15.01">
    <path id="prefix__Path_3" d="M7.5 1.334a23.012 23.012 0 0 1 3 .083 3.868 3.868 0 0 1 1.418.25 2.929 2.929 0 0 1 1.418 1.418 3.868 3.868 0 0 1 .25 1.418c0 .75.083 1 .083 3a23.011 23.011 0 0 1-.083 3 3.868 3.868 0 0 1-.25 1.418 2.929 2.929 0 0 1-1.418 1.418 3.868 3.868 0 0 1-1.418.25c-.75 0-1 .083-3 .083a23.011 23.011 0 0 1-3-.083 3.868 3.868 0 0 1-1.418-.25 2.929 2.929 0 0 1-1.418-1.418 3.868 3.868 0 0 1-.25-1.418c0-.75-.083-1-.083-3a23.012 23.012 0 0 1 .083-3 3.868 3.868 0 0 1 .25-1.418 3 3 0 0 1 .584-.834 1.41 1.41 0 0 1 .834-.584A3.868 3.868 0 0 1 4.5 1.418a23.012 23.012 0 0 1 3-.083M7.5 0a24.639 24.639 0 0 0-3.08.083 5.148 5.148 0 0 0-1.835.334 3.264 3.264 0 0 0-1.334.834 3.264 3.264 0 0 0-.834 1.334A3.8 3.8 0 0 0 .083 4.42 24.639 24.639 0 0 0 0 7.5a24.639 24.639 0 0 0 .083 3.09 5.148 5.148 0 0 0 .334 1.835 3.264 3.264 0 0 0 .834 1.334 3.264 3.264 0 0 0 1.334.834 5.148 5.148 0 0 0 1.835.334 24.639 24.639 0 0 0 3.08.083 24.639 24.639 0 0 0 3.085-.083 5.148 5.148 0 0 0 1.835-.334 3.5 3.5 0 0 0 2.168-2.168 5.148 5.148 0 0 0 .334-1.835c0-.834.083-1.084.083-3.085a24.639 24.639 0 0 0-.083-3.085 5.148 5.148 0 0 0-.334-1.835 3.264 3.264 0 0 0-.834-1.334 3.264 3.264 0 0 0-1.329-.834A5.148 5.148 0 0 0 10.59.083 24.639 24.639 0 0 0 7.5 0m0 3.669A3.774 3.774 0 0 0 3.669 7.5 3.836 3.836 0 1 0 7.5 3.669m0 6.337A2.457 2.457 0 0 1 5 7.5 2.457 2.457 0 0 1 7.5 5 2.457 2.457 0 0 1 10 7.5 2.457 2.457 0 0 1 7.5 10m4-7.422a.917.917 0 1 0 .917.917.925.925 0 0 0-.917-.917" data-name="Path 3" style="fill-rule:evenodd"/>
</svg>
