<svg xmlns="http://www.w3.org/2000/svg" width="114.72" height="38.458" viewBox="0 0 114.72 38.458">
    <defs>
        <style>
            .prefix__cls-1{fill:#e5242d}.prefix__cls-2{fill:#208d4b}
        </style>
    </defs>
    <g id="prefix__logo-the-emirates" transform="translate(-22.132 -47.5)">
        <g id="prefix__Group_4428" data-name="Group 4428" transform="translate(22.132 47.5)">
            <g id="prefix__Group_4427" data-name="Group 4427">
                <g id="prefix__Group_4426" data-name="Group 4426">
                    <path id="prefix__Path_10568" d="M22.156 107.175l1.108 6.469 2.5-2.145a2.151 2.151 0 0 0 .715-1.966l-1.142-6.433-2.5 2.109a2.186 2.186 0 0 0-.681 1.966z" class="prefix__cls-1" data-name="Path 10568" transform="translate(-22.132 -83.227)"/>
                    <path id="prefix__Path_10569" d="M41.849 105.409l2.5-2.109 2 11.58a2.1 2.1 0 0 1-.715 1.966l-2.5 2.109-2-11.58a2.1 2.1 0 0 1 .715-1.966z" class="prefix__cls-1" data-name="Path 10569" transform="translate(-34.319 -83.356)"/>
                    <path id="prefix__Path_10570" d="M60.771 105.709l2.5-2.109 2 11.616a2.1 2.1 0 0 1-.715 1.966l-2.5 2.109-2-11.616a2.119 2.119 0 0 1 .715-1.966z" class="prefix__cls-1" data-name="Path 10570" transform="translate(-46.486 -83.549)"/>
                    <path id="prefix__Path_10571" d="M126.649 49.609l2.5-2.109 2 11.616a2.1 2.1 0 0 1-.715 1.966l-2.5 2.109-2-11.616a2.039 2.039 0 0 1 .715-1.966z" data-name="Path 10571" transform="translate(-88.81 -47.5)"/>
                    <path id="prefix__Path_10572" d="M94.971 84.809l2.5-2.109 3.789 21.8a2.1 2.1 0 0 1-.715 1.966l-2.5 2.109-3.789-21.8a2.119 2.119 0 0 1 .715-1.966z" class="prefix__cls-2" data-name="Path 10572" transform="translate(-68.462 -70.119)"/>
                    <path id="prefix__Path_10573" d="M110.171 63.609l2.5-2.109 3.36 19.265a2.1 2.1 0 0 1-.715 1.966l-2.5 2.109-3.36-19.265a2.151 2.151 0 0 1 .715-1.966z" data-name="Path 10573" transform="translate(-78.229 -56.496)"/>
                    <path id="prefix__Path_10574" d="M79.749 106.009l2.5-2.109 2.466 14.154A2.1 2.1 0 0 1 84 120.02l-2.5 2.145-2.466-14.155a2.073 2.073 0 0 1 .715-2.001z" class="prefix__cls-2" data-name="Path 10574" transform="translate(-58.673 -83.742)"/>
                </g>
            </g>
        </g>
        <g id="prefix__Group_4430" data-name="Group 4430" transform="translate(67.942 70.446)">
            <g id="prefix__Group_4429" data-name="Group 4429">
                <path id="prefix__Path_10575" d="M169.2 112.1h1.287v3.038h3.538V112.1h1.287v7.542h-1.287v-3.253h-3.538v3.253H169.2z" data-name="Path 10575" transform="translate(-162.445 -111.957)"/>
                <path id="prefix__Path_10576" d="M254.887 112.1v7.542H253.6V112.1z" data-name="Path 10576" transform="translate(-216.679 -111.957)"/>
                <path id="prefix__Path_10577" d="M328.571 117.347a3.97 3.97 0 0 0 2.43.965c.643 0 1.43-.286 1.43-1.037.036-1.644-3.967-.572-3.932-3.324a2.391 2.391 0 0 1 2.645-2.252 4.287 4.287 0 0 1 2.323.643v1.43a3.9 3.9 0 0 0-2.323-.894c-.572 0-1.358.286-1.358.929 0 1.608 3.932.643 3.932 3.324a2.5 2.5 0 0 1-2.752 2.323 4.375 4.375 0 0 1-2.43-.679v-1.43z" data-name="Path 10577" transform="translate(-264.807 -111.7)"/>
                <path id="prefix__Path_10578" d="M150.3 112.1l.679.822a1.006 1.006 0 0 0 .751.357h1.144v6.362h1.287v-6.362h1.966V112.1z" data-name="Path 10578" transform="translate(-150.3 -111.957)"/>
                <path id="prefix__Path_10579" d="M282.21 112.1h-2l.357.465a.693.693 0 0 1 .107.643l-2.573 6.469h1.322l.751-1.894h2.9l.751 1.894h1.358zm-1.608 4.5l1.036-2.788 1.037 2.788z" data-name="Path 10579" transform="translate(-232.422 -111.957)"/>
                <path id="prefix__Path_10580" d="M190.437 118.4v-2.145h3v-1.145h-3v-1.93h3.253V112h-5.29l.5.608a1.028 1.028 0 0 1 .25.643v6.291h4.575v-1.18h-3.288z" data-name="Path 10580" transform="translate(-174.782 -111.893)"/>
                <path id="prefix__Path_10581" d="M212.837 118.4v-2.145h3v-1.145h-3v-1.93h3.253V112h-5.29l.5.608a1.028 1.028 0 0 1 .25.643v6.291h4.575v-1.18h-3.288z" data-name="Path 10581" transform="translate(-189.176 -111.893)"/>
                <path id="prefix__Path_10582" d="M293.6 112.1l.679.822a1.006 1.006 0 0 0 .751.357h1.251v6.362h1.287v-6.362h2V112.1z" data-name="Path 10582" transform="translate(-242.382 -111.957)"/>
                <path id="prefix__Path_10583" d="M266.455 119.642l-1.787-3.11a2.11 2.11 0 0 0 1.5-2.145 2.28 2.28 0 0 0-2.568-2.287h-3.4l.465.572a1.028 1.028 0 0 1 .25.643v6.326h1.285v-2.931h1.179l1.644 2.967h1.43zm-4.325-6.362h1.43a1.152 1.152 0 1 1 0 2.287h-1.43z" data-name="Path 10583" transform="translate(-220.92 -111.957)"/>
                <path id="prefix__Path_10584" d="M313.337 118.4v-2.145h3v-1.145h-3v-1.93h3.253V112h-5.29l.5.608a1.028 1.028 0 0 1 .25.643v6.291h4.575v-1.18h-3.288z" data-name="Path 10584" transform="translate(-253.755 -111.893)"/>
                <path id="prefix__Path_10585" d="M235.176 112.1l-2.395 3.753-2.466-3.753H229.1v7.542h1.287v-5.326l2.359 3.61 2.395-3.646v5.361h1.251V112.1z" data-name="Path 10585" transform="translate(-200.935 -111.957)"/>
            </g>
        </g>
    </g>
</svg>
